<?xml version="1.0" encoding="UTF-8"?>
<svg width="50px" height="50px" viewBox="0 0 50 50" version="1.1" xmlns="http://www.w3.org/2000/svg" xmlns:xlink="http://www.w3.org/1999/xlink">
    <title>层级对象</title>
    <g id="页面-1" stroke="none" stroke-width="1" fill="none" fill-rule="evenodd">
        <g id="画板" transform="translate(-491.000000, -177.000000)">
            <g id="层级对象" transform="translate(491.000000, 177.000000)">
                <rect id="矩形" fill="#1FBFCC" opacity="0" x="0" y="0" width="50" height="50"></rect>
                <g id="编组" transform="translate(9.000000, 7.000000)" fill="#FFFFFF" fill-rule="nonzero">
                    <path d="M15.9919934,36 C15.708072,36 15.4281215,35.9235245 15.173982,35.7631725 L0.757127939,26.6888968 C0.0161526248,26.223465 -0.223294382,25.2198262 0.230185687,24.453015 C0.679694827,23.6862037 1.64542471,23.438275 2.38957677,23.9074072 L15.9919934,32.4660897 L29.6126762,23.9074072 C30.3572254,23.4419754 31.3225582,23.6862037 31.7720673,24.453015 C32.2215765,25.2202374 31.9857033,26.223465 31.2451251,26.6888968 L16.8096076,35.7631725 C16.5558653,35.919824 16.2755177,36 15.9919934,36 L15.9919934,36 Z M15.9919934,28.3298317 C15.708072,28.3298317 15.4281215,28.2533562 15.173982,28.0934154 L0.756730846,19.0195508 C0.0157555319,18.554119 -0.223691475,17.5504803 0.229788594,16.7832579 C0.679297734,16.0164466 1.64502762,15.7685179 2.38917968,16.2376501 L15.9915963,24.7963326 L29.6122791,16.2376501 C30.3568283,15.7722183 31.3221611,16.0164466 31.7716702,16.7832579 C32.2211794,17.5504803 31.9853062,18.5537079 31.244728,19.0195508 L16.8100047,28.0934154 C16.5558653,28.2500669 16.2755177,28.3298317 15.9919934,28.3298317 L15.9919934,28.3298317 Z" id="形状"></path>
                    <path d="M15.9944406,21 C15.7105133,21 15.4305569,20.9213506 15.1799861,20.7676817 L0.755286409,11.8702141 C0.28710414,11.5782029 0,11.06194 0,10.5041341 C0,9.94632825 0.287501241,9.42966207 0.755286409,9.13805422 L15.1760151,0.232923281 C15.6775539,-0.0776410936 16.3037824,-0.0776410936 16.8088951,0.232923281 L31.2443165,9.14168419 C31.7124988,9.4300654 32,9.94632825 32,10.5077641 C32,11.06557 31.7124988,11.5822362 31.2407426,11.8702141 L16.8088951,20.7676817 C16.5583242,20.9217539 16.2743969,21 15.9944406,21 L15.9944406,21 Z" id="路径"></path>
                </g>
            </g>
        </g>
    </g>
</svg>