<?xml version="1.0" encoding="UTF-8"?>
<svg width="50px" height="50px" viewBox="0 0 50 50" version="1.1" xmlns="http://www.w3.org/2000/svg" xmlns:xlink="http://www.w3.org/1999/xlink">
    <title>关系编码</title>
    <g id="页面-1" stroke="none" stroke-width="1" fill="none" fill-rule="evenodd">
        <g id="画板" transform="translate(-95.000000, -177.000000)">
            <g id="关系编码" transform="translate(95.000000, 177.000000)">
                <rect id="矩形" fill="#1FBFCC" opacity="0" x="0" y="0" width="50" height="50"></rect>
                <g id="编组" transform="translate(5.000000, 4.000000)" fill="#FFFFFF" fill-rule="nonzero">
                    <path d="M14.8209498,2.97574725 C13.1685176,5.83599271 14.1491262,9.49335887 17.0112172,11.1447662 C19.1060284,12.3456242 21.717821,12.1704508 23.6332732,10.7006237 C25.5487254,9.23079658 26.3923697,6.7544317 25.7722869,4.42193721 C25.1428648,2.09163734 23.1733489,0.367922213 20.7788767,0.0517177514 C18.3844045,-0.26448671 16.0344611,0.888817816 14.8209498,2.97574725 L14.8209498,2.97574725 Z M39.1882416,34.3601042 C40.5493178,32.0194007 40.16513,29.0566062 38.251994,27.1399145 C36.3388581,25.2232228 33.3750905,24.8318395 31.0294331,26.1861319 C28.6837758,27.5404242 27.5426828,30.3017963 28.2486436,32.9154644 C28.64741,34.4492056 29.6472183,35.7579529 31.0226131,36.546586 C33.8816715,38.1961622 37.5375197,37.2172485 39.1882416,34.3601042 L39.1882416,34.3601042 Z M32.5199868,24.60067 C33.5044064,24.377581 34.5263171,24.377581 35.5107366,24.60067 L35.5107366,14.2048983 L26.6165068,9.00701241 C26.3262028,9.97454676 25.8192663,10.8633246 25.1341352,11.6059553 L32.5199868,15.9202006 L32.5199868,24.60067 Z M0.842816333,28.377759 C-0.836395442,31.1969134 0.0710403331,34.8417104 2.87639757,36.5458201 C5.73818827,38.1969727 9.39753031,37.2171235 11.0498298,34.3572487 C12.1069809,32.5114444 12.1035135,30.2434063 11.0407237,28.4008387 C9.97793393,26.5582712 8.01578892,25.4185105 5.88766209,25.4074756 C3.74706814,25.3965532 1.76366532,26.5291814 0.686387007,28.377759 L0.842816333,28.377759 Z M7.50171474,24.60067 L7.50171474,15.9202006 L14.8875664,11.6059553 C14.2008879,10.8601167 13.6860289,9.97301216 13.3791882,9.00701241 L4.51096496,14.2048983 L4.51096496,24.60067 C5.49548246,24.3784574 6.51719724,24.3784574 7.50171474,24.60067 L7.50171474,24.60067 Z M27.3186829,33.3331183 L20.0108508,37.5953847 L12.6770122,33.3331183 C12.5306945,33.8672216 12.3211629,34.3819816 12.0528557,34.8664947 C11.8281337,35.2543238 11.5668839,35.6198331 11.2726601,35.9580507 L20.0368573,41 L28.827061,35.9320613 C28.1403826,35.1862226 27.6255236,34.2991181 27.3186829,33.3331183 L27.3186829,33.3331183 Z" id="形状"></path>
                </g>
            </g>
        </g>
    </g>
</svg>