<?xml version="1.0" encoding="UTF-8"?>
<svg width="50px" height="50px" viewBox="0 0 50 50" version="1.1" xmlns="http://www.w3.org/2000/svg" xmlns:xlink="http://www.w3.org/1999/xlink">
    <title>枚举对象</title>
    <g id="页面-1" stroke="none" stroke-width="1" fill="none" fill-rule="evenodd">
        <g id="画板" transform="translate(-689.000000, -177.000000)">
            <g id="枚举对象" transform="translate(689.000000, 177.000000)">
                <rect id="矩形" fill="#1FBFCC" opacity="0" x="0" y="0" width="50" height="50"></rect>
                <g id="编组" transform="translate(5.000000, 8.000000)" fill="#FFFFFF" fill-rule="nonzero">
                    <path d="M25.17018,2.74692913 L34.5035134,2.74692913 C36.0590689,2.74692913 36.8368467,3.40997017 36.8368467,4.73605225 C36.8368467,6.06213432 36.0590689,6.72517536 34.5035134,6.72517536 L25.17018,6.72517536 C23.6146245,6.72517536 22.8368467,6.06213432 22.8368467,4.73605225 C22.8368467,3.40997017 23.6146245,2.74692913 25.17018,2.74692913 L25.17018,2.74692913 Z M25.17018,18.217904 L34.5035134,18.217904 C36.0590689,18.217904 36.8368467,18.880945 36.8368467,20.2070271 C36.8368467,21.5331091 36.0590689,22.1961502 34.5035134,22.1961502 L25.17018,22.1961502 C23.6146245,22.1961502 22.8368467,21.5331091 22.8368467,20.2070271 C22.8368467,18.880945 23.6146245,18.217904 25.17018,18.217904 Z M3.31520519,30.6888788 L36.4672571,30.6888788 C38.6773939,30.6888788 39.7824623,31.3519198 39.7824623,32.6780019 C39.7824623,34.004084 38.6773939,34.667125 36.4672571,34.667125 L3.31520519,34.667125 C1.1050684,34.667125 0,34.004084 0,32.6780019 C0,31.3519198 1.1050684,30.6888788 3.31520519,30.6888788 Z M2.53483584,5.23421193 C1.82094442,6.02857995 1.82094442,7.23342228 2.53483584,8.0277903 L6.83911178,12.6801628 L6.84242698,12.683478 C7.17114678,13.0512083 7.64100672,13.2614163 8.1342433,13.2614163 C8.62747988,13.2614163 9.09733982,13.0512083 9.42605963,12.683478 L18.0411901,3.37215442 C18.7550815,2.57778639 18.7550815,1.37294407 18.0411901,0.578576043 C17.7124533,0.210461162 17.2423386,0 16.748804,0 C16.2552693,0 15.7851547,0.210461162 15.4564179,0.578576043 L8.1342174,8.49300683 L5.11960808,5.23416013 C4.79087128,4.86604525 4.32075661,4.65558409 3.82722196,4.65558409 C3.33368731,4.65558409 2.86357264,4.86604525 2.53483584,5.23416013 L2.53483584,5.23421193 Z M2.53483584,18.705135 C1.82091339,19.4995109 1.82091339,20.7043892 2.53483584,21.4987651 L6.83911178,26.1510858 L6.84242698,26.154401 C7.17114678,26.5221314 7.64100672,26.7323393 8.1342433,26.7323393 C8.62747988,26.7323393 9.09733982,26.5221314 9.42605963,26.154401 L18.0411901,16.8431292 C18.754461,16.0489195 18.754461,14.8447966 18.0411901,14.0505869 C17.7124533,13.682472 17.2423386,13.4720108 16.748804,13.4720108 C16.2552693,13.4720108 15.7851547,13.682472 15.4564179,14.0505869 L8.1342174,21.9639817 L5.11960808,18.705135 C4.79087128,18.3370201 4.32075661,18.1265589 3.82722196,18.1265589 C3.33368731,18.1265589 2.86357264,18.3370201 2.53483584,18.705135 L2.53483584,18.705135 Z" id="形状"></path>
                </g>
            </g>
        </g>
    </g>
</svg>