<?xml version="1.0" encoding="UTF-8"?>
<svg width="50px" height="50px" viewBox="0 0 50 50" version="1.1" xmlns="http://www.w3.org/2000/svg" xmlns:xlink="http://www.w3.org/1999/xlink">
    <title>普通对象</title>
    <g id="页面-1" stroke="none" stroke-width="1" fill="none" fill-rule="evenodd">
        <g id="画板" transform="translate(-293.000000, -177.000000)">
            <g id="普通对象" transform="translate(293.000000, 177.000000)">
                <rect id="矩形" fill="#1FBFCC" opacity="0" x="0" y="0" width="50" height="50"></rect>
                <g id="编组-3" transform="translate(24.887464, 24.450493) scale(-1, -1) translate(-24.887464, -24.450493) translate(6.000000, 6.000000)" fill="#FFFFFF" fill-rule="nonzero">
                    <g id="编组" transform="translate(18.887465, 18.450493) scale(-1, -1) translate(-18.887465, -18.450493) ">
                        <path d="M29.5440478,27.1927665 L27.8556619,25.5043807 C28.6998548,24.2380912 29.3329995,22.7607536 29.3329996,21.0723677 C29.3329996,18.7508371 28.2777584,16.6403547 26.5893725,15.3740653 L28.4888066,10.5524118 L29.3329995,10.5524118 C32.2876749,10.5524118 34.6092054,8.23088123 34.6092054,5.2762059 C34.6092054,2.32153057 32.2876749,3.3740728e-14 29.3329995,3.3740728e-14 C26.3783242,3.3740728e-14 24.0567936,2.32153061 24.0567936,5.2762059 C24.0567936,7.17564003 25.1120348,8.65297767 26.3783242,9.70821888 L24.6899384,14.3188241 C23.8457454,13.8967277 23.0015525,13.6856794 21.9463113,13.6856794 C17.9363948,13.6856794 14.559623,17.0624512 14.559623,21.0723677 C14.559623,22.1276088 14.7706712,22.9718018 15.1927677,23.8159948 L9.70821888,27.1927665 C8.65297771,25.9264771 7.17564003,24.8712359 5.2762059,24.8712359 C2.32153061,24.8712359 0,27.1927665 0,30.1474418 C0,33.1021171 2.32153061,35.4236477 5.2762059,35.4236477 C8.23088119,35.4236477 10.5524118,33.1021172 10.5524118,30.1474418 L10.5524118,29.3032489 L16.2480089,25.7154289 C17.5142983,27.4038148 19.6247807,28.459056 21.9463113,28.459056 C23.6346971,28.459056 25.1120348,27.8259113 26.3783242,26.9817183 L28.0667101,28.6701042 C27.6446136,29.5142971 27.2225172,30.5695383 27.2225172,31.6247795 C27.2225172,34.5794548 29.5440478,36.9009854 32.4987231,36.9009854 C35.4533984,36.9009854 37.774929,34.5794548 37.774929,31.6247795 C37.774929,28.6701042 35.4533984,26.3485736 32.4987231,26.3485736 C31.4434819,26.3485736 30.3882407,26.7706701 29.5440478,27.1927665 Z" id="形状"></path>
                    </g>
                    <path d="M36.2975913,20.7557953 C37.1417843,19.4895059 37.774929,18.0121682 37.774929,16.3237824 C37.774929,14.0022518 36.7196878,11.8917694 35.0313019,10.62548 L33.1318678,9.57023882 C32.2876748,9.14814234 31.4434819,8.9370941 30.3882407,8.9370941 C26.3783242,8.9370941 23.0015524,12.3138659 23.0015524,16.3237824 C23.0015524,17.3790235 23.2126007,18.2232165 23.6346971,19.0674095 L18.1501483,22.4441812 C17.0949071,21.1778918 15.6175695,20.1226506 13.7181353,20.1226506 C10.76346,20.1226506 8.44192943,22.4441812 8.44192943,25.3988565 C8.44192943,28.3535318 10.76346,30.6750624 13.7181353,30.6750624 C16.6728106,30.6750624 18.9943412,28.3535318 18.9943412,25.3988565 L18.9943412,24.5546636 L24.6899383,20.9668436 C25.9562277,22.6552295 28.0667101,23.7104707 30.3882407,23.7104707 C32.0766266,23.7104707 33.5539642,23.0773259 34.8202537,22.233133 L36.2975913,20.7557953 Z" id="形状" transform="translate(23.108429, 19.806078) scale(-1, 1) translate(-23.108429, -19.806078) "></path>
                </g>
            </g>
        </g>
    </g>
</svg>