<?xml version="1.0" encoding="UTF-8"?>
<svg width="50px" height="50px" viewBox="0 0 50 50" version="1.1" xmlns="http://www.w3.org/2000/svg" xmlns:xlink="http://www.w3.org/1999/xlink">
    <title>数据板块</title>
    <g id="页面-1" stroke="none" stroke-width="1" fill="none" fill-rule="evenodd">
        <g id="画板" transform="translate(-689.000000, -311.000000)">
            <g id="数据板块" transform="translate(689.000000, 311.000000)">
                <rect id="矩形" fill="#5B83F7" opacity="0" x="0" y="0" width="50" height="50"></rect>
                <g id="编组" transform="translate(8.000000, 8.000000)" fill="#FFFFFF" fill-rule="nonzero">
                    <path d="M0,2 L0,33 C1.3527075e-16,34.1045695 0.8954305,35 2,35 L33,35 C34.1045695,35 35,34.1045695 35,33 L35,2 C35,0.8954305 34.1045695,-2.02906125e-16 33,0 L2,0 C0.8954305,2.02906125e-16 -1.3527075e-16,0.8954305 0,2 Z M2.50390625,31.4960938 L2.50390625,3.50390625 C2.50390625,2.9516215 2.9516215,2.50390625 3.50390625,2.50390625 L31.4921875,2.50390625 C32.0444722,2.50390625 32.4921875,2.9516215 32.4921875,3.50390625 L32.4921875,31.4960938 C32.4921875,32.0483785 32.0444722,32.4960938 31.4921875,32.4960938 L3.50390625,32.4960938 C2.9516215,32.4960938 2.50390625,32.0483785 2.50390625,31.4960938 Z" id="形状"></path>
                    <path d="M24.6015625,28.4453125 L24.6015625,25.2617188 C24.6015625,24.1571493 23.706132,23.2617188 22.6015625,23.2617188 L12.4023438,23.2617188 C11.2977743,23.2617188 10.4023438,24.1571493 10.4023438,25.2617188 L10.4023438,25.5429688 L10.4023438,25.5429688 L8.51953125,25.5429688 C7.9672465,25.5429688 7.51953125,25.0952535 7.51953125,24.5429688 L7.51953125,19.6953125 C7.51953125,19.1430278 7.9672465,18.6953125 8.51953125,18.6953125 L9.33203125,18.6953125 C9.97061049,18.6953125 10.4882812,19.2129833 10.4882812,19.8515625 C10.4882812,20.4901417 11.005952,21.0078125 11.6445312,21.0078125 L23.3925781,21.0078125 C24.0149771,21.0078125 24.5195313,20.5032584 24.5195313,19.8808594 C24.5195313,19.2584604 25.0240854,18.7539062 25.6464844,18.7539062 L28.0351563,18.7539062 C29.1397257,18.7539062 30.0351563,17.8584757 30.0351563,16.7539062 L30.0351563,8.89453125 C30.0351563,7.78996175 29.1397257,6.89453125 28.0351563,6.89453125 L24.5976563,6.89453125 L24.5976563,6.89453125 L24.5976563,6.5546875 C24.5976563,5.450118 23.7022257,4.5546875 22.5976563,4.5546875 L12.4023438,4.5546875 C11.2977743,4.5546875 10.4023438,5.450118 10.4023438,6.5546875 L10.4023438,9.73828125 C10.4023438,10.8428507 11.2977743,11.7382812 12.4023438,11.7382812 L22.6015625,11.7382812 C23.706132,11.7382812 24.6015625,10.8428507 24.6015625,9.73828125 L24.6015625,9.3984375 L24.6015625,9.3984375 L26.5273437,9.3984375 C27.0796285,9.3984375 27.5273437,9.84615275 27.5273437,10.3984375 L27.5273437,15.2460938 C27.5273437,15.7983785 27.0796285,16.2460938 26.5273437,16.2460938 L25.6425781,16.2460938 C25.0201791,16.2460938 24.515625,15.7415396 24.515625,15.1191406 C24.515625,14.4967416 24.0110709,13.9921875 23.3886719,13.9921875 L11.5839844,13.9921875 C10.9766869,13.9921875 10.484375,14.4844994 10.484375,15.0917969 C10.484375,15.6990944 9.99206311,16.1914063 9.38476562,16.1914063 L7.01171875,16.1914063 C5.90714925,16.1914062 5.01171875,17.0868368 5.01171875,18.1914063 L5.01171875,26.0507813 C5.01171875,27.1553507 5.90714925,28.0507813 7.01171875,28.0507813 L10.4023438,28.0507813 L10.4023438,28.0507813 L10.4023438,28.4453125 C10.4023438,29.549882 11.2977743,30.4453125 12.4023438,30.4453125 L22.6015625,30.4453125 C23.706132,30.4453125 24.6015625,29.549882 24.6015625,28.4453125 Z" id="形状"></path>
                </g>
            </g>
        </g>
    </g>
</svg>