<?xml version="1.0" encoding="UTF-8"?>
<svg width="50px" height="50px" viewBox="0 0 50 50" version="1.1" xmlns="http://www.w3.org/2000/svg" xmlns:xlink="http://www.w3.org/1999/xlink">
    <title>虚拟对象</title>
    <g id="页面-1" stroke="none" stroke-width="1" fill="none" fill-rule="evenodd">
        <g id="画板" transform="translate(-887.000000, -177.000000)">
            <g id="虚拟对象" transform="translate(887.000000, 177.000000)">
                <rect id="矩形" fill="#1FBFCC" opacity="0" x="0" y="0" width="50" height="50"></rect>
                <g id="编组" transform="translate(5.000000, 8.000000)" fill="#FFFFFF" fill-rule="nonzero">
                    <path d="M20.0537027,9.31223452 C18.0087702,9.31223452 16.3510249,10.9699798 16.3510249,13.0149123 C16.3510249,15.0598447 18.0087702,16.71759 20.0537027,16.71759 C22.0986351,16.71759 23.7563804,15.0598447 23.7563804,13.0149123 C23.7563804,10.9699798 22.0986351,9.31223452 20.0537027,9.31223452 M14.3330655,12.478024 C13.1316879,12.4617956 12.0743934,13.2676994 11.7716475,14.4304189 C11.4689017,15.5931383 11.998905,16.8123386 13.0556417,17.384072 C13.4444229,17.608084 13.8850416,17.722867 14.3330655,17.717313 C14.7753523,17.7240317 15.210936,17.6087301 15.591976,17.384072 C15.9807572,17.1619114 16.3084442,16.8508864 16.5546722,16.476916 C15.7911683,15.4767647 15.3751315,14.2546566 15.3698153,12.9963989 L15.3698153,12.7001847 C15.0448477,12.5505709 14.6908046,12.4747045 14.3330655,12.478024 M25.7743398,12.478024 C25.4166007,12.4747045 25.0625577,12.5505709 24.73759,12.7001847 L24.73759,12.9963989 C24.7322738,14.2546566 24.316237,15.4767647 23.5527331,16.476916 C23.6730701,16.6657525 23.8156233,16.8397784 23.9785411,16.9952909 C24.1359049,17.1508033 24.3173361,17.2822484 24.5154294,17.384072 C24.8964693,17.6087301 25.332053,17.7240316 25.7743398,17.717313 C26.2223638,17.722867 26.6629824,17.608084 27.0517636,17.384072 C28.1085003,16.8123386 28.6385036,15.5931383 28.3357578,14.4304189 C28.033012,13.2676994 26.9757174,12.4617956 25.7743398,12.478024 M20.0537027,18.6985226 C17.5914219,18.6985226 12.6483472,19.9389197 12.6483472,22.4012004 L12.6483472,23.9748384 L27.4590582,23.9748384 L27.4590582,22.4012004 C27.4590582,19.9574331 22.5715235,18.6985226 20.0537027,18.6985226 M13.4999631,19.2724377 C11.4634903,19.5131117 8.55688826,20.5498615 8.55688826,22.382687 L8.55688826,23.956325 L11.7041644,23.956325 L11.7041644,21.9198522 C11.8236814,20.7772568 12.5233052,19.7767947 13.5555032,19.2724377 M26.6629824,19.2724377 C27.6951805,19.7767947 28.3948043,20.7772568 28.5143213,21.9198522 L28.5143213,23.956325 L31.6615974,23.956325 L31.6615974,22.4012004 C31.6615974,20.5498615 28.7549954,19.5316251 26.7185226,19.2909511" id="形状"></path>
                    <path d="M0,16.3510249 L5.23928903,11.1154386 L10.4748753,16.3510249 L7.09062787,16.3510249 L7.09062787,29.63253 L33.0093721,29.63253 L33.0093721,25.9298522 L36.7120499,25.9113389 L36.7046445,26.3352955 L36.7046445,27.2517082 L36.7120499,27.7441644 L36.7120499,29.7991505 C36.7120499,31.6127215 35.326904,33.1259344 33.5203417,33.2852216 L33.2130194,33.298181 L6.88698061,33.298181 C5.06092282,33.298181 3.54205103,31.8935992 3.39905817,30.0731486 L3.38795014,29.7991505 L3.38795014,16.3510249 L0,16.3510249 Z M40.1,16.9471561 L34.860711,22.1827424 L29.6251247,16.9471561 L33.0093721,16.9471561 L33.0093721,3.66565097 L7.09062787,3.66565097 L7.09062787,7.3683287 L3.38795009,7.38684211 L3.39535551,6.96288549 L3.39535551,6.04647275 L3.38795009,5.55401662 L3.38795009,3.49903047 C3.38795009,1.68545948 4.77309602,0.17224656 6.57965834,0.0129593866 L6.88512926,0 L33.211168,0 C35.0372258,0 36.5560976,1.40458179 36.6990905,3.2250323 L36.7120499,3.49903047 L36.7120499,16.9471561 L40.1,16.9471561 Z" id="形状"></path>
                </g>
            </g>
        </g>
    </g>
</svg>