<?xml version="1.0" encoding="UTF-8"?>
<svg width="50px" height="50px" viewBox="0 0 50 50" version="1.1" xmlns="http://www.w3.org/2000/svg" xmlns:xlink="http://www.w3.org/1999/xlink">
    <title>业务快照</title>
    <g id="页面-1" stroke="none" stroke-width="1" fill="none" fill-rule="evenodd">
        <g id="画板" transform="translate(-293.000000, -311.000000)">
            <g id="业务快照" transform="translate(293.000000, 311.000000)">
                <rect id="矩形" fill="#7068F4" opacity="0" x="0" y="0" width="50" height="50"></rect>
                <g id="编组" transform="translate(6.000000, 6.000000)" fill="#FFFFFF" fill-rule="nonzero">
                    <path d="M14.411216,19.459366 C14.411216,20.9288976 15.1952289,22.2868027 16.4677724,23.0213496 C17.7403159,23.7558966 19.3079039,23.7558966 20.5808852,23.0213496 C21.8534287,22.2868027 22.6374416,20.9288976 22.6374416,19.459366 C22.6374416,17.1878736 20.7958212,15.3462532 18.5238911,15.3462532 C16.251961,15.3462532 14.411216,17.1874358 14.411216,19.459366 Z" id="路径"></path>
                    <path d="M28.0134674,11.5299359 L24.7916166,11.5299359 C24.2991462,11.5299359 23.8535152,11.2953011 23.5952418,10.8807505 L22.844498,9.81745215 C22.5866624,9.42654009 22.1405937,9.1919053 21.6717619,9.1919053 L15.0639035,9.1919053 C14.5946339,9.1919053 14.1564447,9.42654009 13.8675287,9.81745215 L13.1399858,10.8807505 C12.8506321,11.2953011 12.4128806,11.5299359 11.943611,11.5299359 L9.05795335,11.5299359 C7.88477942,11.5299359 6.92303945,12.4680373 6.92303945,13.6333317 L6.92303945,25.652236 C6.92303945,26.8254099 7.88477942,27.7556318 9.05795335,27.7556318 L28.0204714,27.7556318 C29.1936453,27.7556318 30.1238672,26.8170926 30.1238672,25.652236 L30.1238672,13.6337694 C30.1168632,12.468475 29.1862035,11.5299359 28.0134674,11.5299359 Z M18.5203891,25.2924042 C15.3221768,25.2924042 12.6947925,22.6886585 12.6947925,19.4668077 C12.6947925,16.2449569 15.3221768,13.6412112 18.5203891,13.6412112 C21.7422399,13.6412112 24.3696242,16.2453947 24.3696242,19.4668077 C24.3696242,22.6882208 21.7418021,25.2924042 18.5203891,25.2924042 Z M35.4044631,11.9068399 C34.4374701,11.9068399 33.6534573,11.122827 33.6534573,10.155834 L33.6534573,3.97171906 C33.6534573,3.71257019 33.4424611,3.50201173 33.1837499,3.50201173 L26.9707434,3.50201173 C26.0037504,3.50201173 25.2197375,2.71799886 25.2197375,1.75100587 C25.2197375,0.784012877 26.0037504,8.8817842e-16 26.9707434,8.8817842e-16 L33.1837499,8.8817842e-16 C35.3738205,8.8817842e-16 37.155469,1.78164847 37.155469,3.97171906 L37.155469,10.155834 C37.155469,11.122827 36.3714561,11.9068399 35.4044631,11.9068399 L35.4044631,11.9068399 Z M33.1833122,37.1550312 L26.9707434,37.1550312 C26.0037504,37.1550312 25.2197375,36.3710184 25.2197375,35.4040254 C25.2197375,34.4370324 26.0037504,33.6530195 26.9707434,33.6530195 L33.1837499,33.6530195 C33.4428988,33.6530195 33.6534573,33.4424611 33.6534573,33.1833122 L33.6534573,26.9987595 C33.6534573,26.0317665 34.4374701,25.2477536 35.4044631,25.2477536 C36.3714561,25.2477536 37.155469,26.0317665 37.155469,26.9987595 L37.155469,33.1828744 C37.155469,35.372945 35.3733828,37.1550312 33.1833122,37.1550312 L33.1833122,37.1550312 Z M1.75100587,11.9068399 C0.784012877,11.9068399 0,11.122827 0,10.155834 L0,3.97171906 C0,1.78164847 1.78164847,0 3.97171906,0 L10.1571473,0 C11.1241403,0 11.9081532,0.784012877 11.9081532,1.75100587 C11.9081532,2.71799886 11.1241403,3.50201173 10.1571473,3.50201173 L3.97171906,3.50201173 C3.71257019,3.50201173 3.50201173,3.71257019 3.50201173,3.97171906 L3.50201173,10.155834 C3.50201173,11.122827 2.71843661,11.9068399 1.75100587,11.9068399 Z" id="形状"></path>
                    <path d="M10.157585,37.1550312 L3.97215681,37.1550312 C1.78208622,37.1550312 0.000437751467,35.3733828 0.000437751467,33.1833122 L0.000437751467,26.9606751 C0.000437751467,25.9936821 0.784450629,25.2096692 1.75144362,25.2096692 C2.71843661,25.2096692 3.50244949,25.9936821 3.50244949,26.9606751 L3.50244949,33.1828744 C3.50244949,33.4420233 3.71300794,33.6525818 3.97215681,33.6525818 L10.157585,33.6525818 C11.124578,33.6525818 11.9085909,34.4365946 11.9085909,35.4035876 C11.9085909,36.3705806 11.124578,37.1550312 10.157585,37.1550312 Z" id="路径"></path>
                </g>
            </g>
        </g>
    </g>
</svg>