<?xml version="1.0" encoding="UTF-8"?>
<svg width="50px" height="50px" viewBox="0 0 50 50" version="1.1" xmlns="http://www.w3.org/2000/svg" xmlns:xlink="http://www.w3.org/1999/xlink">
    <title>业务流程 </title>
    <g id="页面-1" stroke="none" stroke-width="1" fill="none" fill-rule="evenodd">
        <g id="画板" transform="translate(-491.000000, -311.000000)">
            <g id="业务流程-" transform="translate(491.000000, 311.000000)">
                <rect id="矩形" fill="#7068F4" opacity="0" x="0" y="0" width="50" height="50"></rect>
                <g id="编组" transform="translate(6.787361, 7.000000)" fill="#FFFFFF" fill-rule="nonzero">
                    <path d="M1.40022683,11.6064989 C1.12018147,11.6064989 0.770124759,11.6765102 0.490079392,11.9565556 C0.280045367,12.1665896 0.140022683,12.446635 0.140022683,12.8667031 L-5.4534155e-13,21.6881321 C0.0700113417,21.8981661 0.140022683,22.2482228 0.42006805,22.5282682 C0.630102076,22.7383022 0.980158784,22.9483363 1.33021549,22.8783249 L10.3616786,22.9483363 C10.6417239,22.9483363 10.9917807,22.8783249 11.271826,22.5982796 C11.5518714,22.3182342 11.6918941,22.0381888 11.6218827,21.6881321 L11.48186,12.7266804 C11.48186,12.446635 11.4118487,12.0965783 11.1318033,11.8165329 C10.9217693,11.6064989 10.6417239,11.4664762 10.2216559,11.4664762 L1.40022683,11.6064989 Z M33.5545241,1.28714286 C33.5545241,0.99010989 33.4555131,0.693076923 33.1584802,0.396043956 C32.9604582,0.198021978 32.5644142,0 32.2673813,0 L22.4652934,0 C22.1682604,0 21.8712274,0.099010989 21.5741945,0.396043956 C21.3761725,0.594065934 21.1781505,0.99010989 21.1781505,1.28714286 L21.1781505,3.76241758 L15.6335351,3.76241758 C15.3365022,3.76241758 15.0394692,3.86142857 14.7424362,4.15846154 C14.5444142,4.35648352 14.3463923,4.75252747 14.3463923,5.04956044 L14.3463923,29.8023077 C14.3463923,30.0993407 14.4454033,30.3963736 14.7424362,30.6934066 C14.9404582,30.8914286 15.3365022,31.0894505 15.6335351,31.0894505 L21.1781505,31.0894505 L21.1781505,34.7528571 C21.1781505,35.0498901 21.2771615,35.3469231 21.5741945,35.643956 C21.7722164,35.841978 22.1682604,36.04 22.4652934,36.04 L32.2673813,36.04 C32.5644142,36.04 32.8614472,35.940989 33.1584802,35.643956 C33.3565022,35.4459341 33.5545241,35.0498901 33.5545241,34.7528571 L33.5545241,26.732967 C33.5545241,26.4359341 33.4555131,26.1389011 33.1584802,25.8418681 C32.9604582,25.6438462 32.5644142,25.4458242 32.2673813,25.4458242 L22.4652934,25.4458242 C22.1682604,25.4458242 21.8712274,25.5448352 21.5741945,25.8418681 C21.3761725,26.0398901 21.1781505,26.4359341 21.1781505,26.732967 L21.1781505,27.327033 L18.7028758,27.327033 C18.4058428,27.327033 18.1088098,27.228022 17.8117769,26.930989 C17.6137549,26.732967 17.4157329,26.3369231 17.4157329,26.0398901 L17.4157329,8.01989011 C17.4157329,7.72285714 17.5147439,7.42582418 17.8117769,7.12879121 C18.0097989,6.93076923 18.4058428,6.73274725 18.7028758,6.73274725 L21.1781505,6.73274725 L21.1781505,9.20802198 C21.1781505,9.50505495 21.2771615,9.80208791 21.5741945,10.0991209 C21.7722164,10.2971429 22.1682604,10.4951648 22.4652934,10.4951648 L32.2673813,10.4951648 C32.5644142,10.4951648 32.8614472,10.3961538 33.1584802,10.0991209 C33.3565022,9.9010989 33.5545241,9.50505495 33.5545241,9.20802198 L33.5545241,1.28714286 L33.5545241,1.28714286 Z" id="形状"></path>
                </g>
            </g>
        </g>
    </g>
</svg>