<?xml version="1.0" encoding="UTF-8"?>
<svg width="50px" height="50px" viewBox="0 0 50 50" version="1.1" xmlns="http://www.w3.org/2000/svg" xmlns:xlink="http://www.w3.org/1999/xlink">
    <title>业务事件</title>
    <g id="页面-1" stroke="none" stroke-width="1" fill="none" fill-rule="evenodd">
        <g id="画板" transform="translate(-95.000000, -311.000000)">
            <g id="业务事件" transform="translate(95.000000, 311.000000)">
                <rect id="矩形" fill="#7068F4" opacity="0" x="0" y="0" width="50" height="50"></rect>
                <g id="编组" transform="translate(7.000000, 9.000000)" fill="#FFFFFF" fill-rule="nonzero">
                    <path d="M28.2378792,0 L5.3925583,0 C4.7018858,0 4.14403495,0.7109375 4.14403495,1.58984375 C4.14403495,2.46875 4.7018858,3.1796875 5.3925583,3.1796875 L28.4541887,3.1796875 C29.1448612,3.1796875 29.702712,2.46875 29.702712,1.58984375 L29.702712,1.546875 C29.702712,0.69140625 29.1562459,0 28.4845479,0 L28.2378792,0 L28.2378792,0 Z M28.2378792,5.53125 L5.3925583,5.53125 C4.7018858,5.53125 4.14403495,6.2421875 4.14403495,7.12109375 C4.14403495,8 4.7018858,8.7109375 5.3925583,8.7109375 L28.4541887,8.7109375 C29.1448612,8.7109375 29.702712,8 29.702712,7.12109375 L29.702712,7.078125 C29.702712,6.22265625 29.1562459,5.53125 28.4845479,5.53125 L28.2378792,5.53125 L28.2378792,5.53125 Z M14.5762255,18.3359375 L19.9801685,18.3359375 C20.393813,18.3359375 20.7998677,18.1640625 21.1300243,17.8476562 L25.2247255,13.9179688 C25.5548822,13.6015625 25.9609369,13.4296875 26.3745814,13.4296875 L28.8602434,13.4296875 C29.3308114,13.4296875 29.7140967,12.9453125 29.7140967,12.3476562 C29.7140967,11.75 29.3308114,11.265625 28.8602434,11.265625 L4.9978883,11.265625 C4.52732023,11.265625 4.14403495,11.75 4.14403495,12.3476562 C4.14403495,12.9453125 4.52732023,13.4296875 4.9978883,13.4296875 L8.14006864,13.4296875 C8.56889277,13.4296875 8.98633219,13.6132812 9.32407863,13.953125 L13.4643187,18.1132812 C13.608525,18.2578125 13.7906804,18.3398438 13.9728358,18.3398438 L14.5762255,18.3398438 L14.5762255,18.3359375 Z" id="形状"></path>
                    <path d="M25.7863713,16.4570312 L21.183153,20.8789063 C20.8529964,21.1953125 20.4469417,21.3671875 20.0332971,21.3671875 L14.4054548,21.3671875 C13.9766307,21.3671875 13.5591913,21.1835938 13.2214448,20.84375 L8.98633219,16.4804688 C8.93320354,16.4609375 8.62581633,16.4570312 8.1969922,16.4570312 L1.90504171,16.4570312 C0.853853354,16.4570312 0,17.5429688 0,18.8789062 L0,28.6171875 C0,29.953125 0.853853354,31.0390625 1.90504171,31.0390625 L32.1769893,31.0390625 C33.2281776,31.0390625 34.082031,29.953125 34.082031,28.6171875 L34.082031,18.8789062 C34.082031,17.5390625 33.2281776,16.4570312 32.1769893,16.4570312 L25.7863713,16.4570312 Z" id="路径"></path>
                </g>
            </g>
        </g>
    </g>
</svg>