<?xml version="1.0" encoding="UTF-8"?>
<svg width="50px" height="50px" viewBox="0 0 50 50" version="1.1" xmlns="http://www.w3.org/2000/svg" xmlns:xlink="http://www.w3.org/1999/xlink">
    <title>主题域</title>
    <g id="页面-1" stroke="none" stroke-width="1" fill="none" fill-rule="evenodd">
        <g id="画板" transform="translate(-887.000000, -311.000000)">
            <g id="主题域" transform="translate(887.000000, 311.000000)">
                <rect id="矩形" fill="#FE761C" opacity="0" x="0" y="0" width="50" height="50"></rect>
                <g id="编组" transform="translate(7.000000, 7.000000)" fill="#FFFFFF" fill-rule="nonzero">
                    <path d="M17.9997013,1.30506818e-06 C20.5052182,-0.000516863327 22.646484,1.80460923 23.0697199,4.27412063 C23.4929557,6.74363203 22.0749755,9.15875758 19.7122729,9.99257525 L19.7122729,11.2757183 L26.9071309,15.4285759 L26.9071309,25.5085771 L28.3111311,26.3880058 C30.4842714,25.150183 33.2328428,25.6551428 34.8241083,27.5845515 C36.4153738,29.5139603 36.3879552,32.3083971 34.7591375,34.2062108 C33.1303198,36.1040246 30.3723694,36.5549551 28.2239358,35.2747297 C26.0755022,33.9945042 25.1595115,31.3543168 26.0534166,29.0185776 L23.7134163,27.558006 L17.9997013,30.8571492 L12.2834149,27.558006 L9.94598603,29.0185776 C10.8398911,31.3543168 9.92390034,33.9945042 7.77546675,35.2747297 C5.62703316,36.5549551 2.86908278,36.1040246 1.2402651,34.2062108 C-0.388552584,32.3083971 -0.415971202,29.5139603 1.17529431,27.5845515 C2.76655983,25.6551428 5.51513114,25.150183 7.68827147,26.3880058 L9.08970021,25.5111486 L9.08970021,15.4285759 L16.2845582,11.2757183 L16.2845582,9.99257525 C13.9213958,9.15859711 12.5033897,6.74273794 12.9273253,4.27285234 C13.3512609,1.80296674 15.4936979,-0.00177159337 17.9997013,1.30506818e-06 Z" id="形状"></path>
                </g>
            </g>
        </g>
    </g>
</svg>