<?xml version="1.0" standalone="no"?><!DOCTYPE svg PUBLIC "-//W3C//DTD SVG 1.1//EN" "http://www.w3.org/Graphics/SVG/1.1/DTD/svg11.dtd"><svg t="1596118028059" class="icon" viewBox="0 0 1024 1024" version="1.1" xmlns="http://www.w3.org/2000/svg" p-id="2105" xmlns:xlink="http://www.w3.org/1999/xlink" width="200" height="200"><defs><style type="text/css"></style></defs><path d="M751.47776 378.84416l-143.03232-137.60512A20.46464 20.46464 0 0 0 594.24768 235.52H307.2c-22.58432 0-40.96 18.37568-40.96 40.96v471.04c0 22.58432 18.37568 40.96 40.96 40.96h409.6c22.58432 0 40.96-18.37568 40.96-40.96V393.60512a20.48 20.48 0 0 0-6.28224-14.76096zM716.8 747.52H307.2V276.48h278.79936L716.8 402.31936V747.52z" fill="" p-id="2106"></path><path d="M532.69504 376.95488a20.48 20.48 0 0 0-40.96 0V491.52H377.16992a20.48 20.48 0 0 0 0 40.96h114.56v114.56512a20.48 20.48 0 0 0 40.96 0V532.48h114.56a20.48 20.48 0 0 0 0-40.96h-114.56V376.95488z" fill="" p-id="2107"></path></svg>