<svg id="图层_1" data-name="图层 1" xmlns="http://www.w3.org/2000/svg" viewBox="0 0 500 500"><defs><style>.cls-1{fill:#fff;}.cls-2{fill:#9dd7f7;opacity:0.43;isolation:isolate;}</style></defs><title>logo</title><path class="cls-1" d="M366.73,408c0,.1.09.2.13.29C366.82,408.15,366.77,408.05,366.73,408Z"/><path class="cls-1" d="M359.72,389.41c12.45,30.6,34.5,50.94,59.88,50.94,33.93,0,34.31,0,55.22,5.61,2.92,4.62,5.56,9.24,8.48,13.85l.07,0c-16.82-27.37-31.55-56.36-59.12-56.36s-52.36-17.2-70.32-45a151.07,151.07,0,0,0,9.2,41Q361.27,394.6,359.72,389.41Z"/><path class="cls-1" d="M364.83,403.69c.2.48.41,1,.62,1.43C365.24,404.65,365,404.17,364.83,403.69Z"/><path class="cls-1" d="M363.27,399.86l1.08,2.7Z"/><path class="cls-1" d="M384.09,429.72c10.66,8.83,22.8,13.63,35.51,13.63,33.27,0,33.9,0,53.3,5.2,1.24,2,2.45,4,3.62,5.94l.39.64c-18.21-4.76-20.28-4.76-52.66-4.76-13.06,0-25.74-5.85-36.69-16.91q-1.77-1.79-3.47-3.74m-24.37-40.31c11.22,37.82,35.83,64,64.53,64,35.83,0,34.12,0,59.12,6.56-2.95-4.66-5.61-9.32-8.55-14-20.91-5.61-21.29-5.61-55.22-5.61-25.38,0-47.43-20.34-59.88-50.94Z"/><path class="cls-1" d="M341,408c0,.1-.09.2-.14.29C340.94,408.15,341,408.05,341,408Z"/><path class="cls-1" d="M348,389.41c-12.45,30.6-34.5,50.94-59.87,50.94-33.93,0-34.31,0-55.22,5.61-2.92,4.62-5.57,9.24-8.48,13.85l-.07,0c16.82-27.37,31.55-56.36,59.11-56.36s52.37-17.2,70.33-45a151.83,151.83,0,0,1-9.2,41Q346.49,394.6,348,389.41Z"/><path class="cls-1" d="M342.93,403.69c-.21.48-.41,1-.62,1.43C342.52,404.65,342.72,404.17,342.93,403.69Z"/><path class="cls-1" d="M344.48,399.86q-.53,1.36-1.08,2.7C343.77,401.66,344.13,400.77,344.48,399.86Z"/><path class="cls-1" d="M323.66,429.72c-1.13,1.3-2.28,2.55-3.47,3.74-10.94,11.06-23.63,16.91-36.69,16.91-32.37,0-34.44,0-52.65,4.76l.38-.64c1.18-1.95,2.39-4,3.62-5.94,19.41-5.2,20-5.2,53.31-5.2,12.71,0,24.85-4.8,35.5-13.63M348,389.41c-12.45,30.6-34.5,50.94-59.87,50.94-33.93,0-34.31,0-55.22,5.61-2.95,4.65-5.61,9.31-8.55,14,25-6.56,23.28-6.56,59.11-6.56,28.7,0,53.32-26.14,64.53-64Z"/><path class="cls-1" d="M149.13,82c1.13,2,2.56,4.58,3.56,6.42,1.29,2.37,2.5,4.61,3.52,6.35,1.57,2.69,3.35,5.73,7.15,5.73l1-.09.12,0A245.47,245.47,0,0,1,212,95.75h4.66a30.37,30.37,0,0,1,3.67.14l.38,0c1.15.08,2.24.12,3.3.17,1.53.06,3,.13,4.34.28l.66,0,.36,0a16.72,16.72,0,0,0,1.68.14c.93.09,1.89.16,2.81.22l2.53.2a20.19,20.19,0,0,0,2.5.27l.53,0a21.54,21.54,0,0,0,2.24.25l.47,0a20,20,0,0,0,2.28.25l.59,0c.92.14,1.87.26,2.79.37s1.8.22,2.53.33c.55.12,1.05.21,1.5.28l1,.17c.63.14,1.23.23,1.76.32.34,0,.7.1,1.05.17l.19,0c3.32.55,6.32,1.07,9.32,1.8a9.18,9.18,0,0,0,2.05.45h0c.59.15,1.18.27,1.71.37l1,.22a10.21,10.21,0,0,0,2.38.52c2.71.65,5.47,1.41,8.42,2.34l.09,0,.52.16c2.35.69,4.39,1.3,6.83,2.14l.23.07c1.78.54,3.7,1.21,5.17,1.83.47.21.88.35,1.17.45h0a9.87,9.87,0,0,0,1,.4,10.11,10.11,0,0,0,5,4.8,20,20,0,0,0,2.38,1l.59.23c.9.4,1.63.69,2.33,1l.41.16c26.94,12.29,48.93,29.4,63.63,49.51a13.47,13.47,0,0,0,1.06,1.52l.15.19a12.57,12.57,0,0,0,1.27,1.9l.2.25.08.13c0,.05,0,.09,0,.13a11.85,11.85,0,0,0,.88,2.68,8.15,8.15,0,0,0,1.6,2.52c.32.57.63,1.11.94,1.64.73,1.25,1.42,2.43,2,3.61l.09.18c.21.42.45.87.68,1.31s.37.7.54,1c1.23,2.56,2.48,5.36,3.69,8.33a16.47,16.47,0,0,0,.61,1.64c.07.17.14.32.18.44a14.15,14.15,0,0,0,.94,2.63,6.45,6.45,0,0,0,.34.82c.1.35.2.69.29,1l.13.49c.13.5.24.94.35,1.49l.32,1.05a3.82,3.82,0,0,1-.17-.5l0,.11a9.34,9.34,0,0,0,.35,1.4v0c.05.29.11.67.23,1.13a6.45,6.45,0,0,0,.24.92v0l.05.2a4.13,4.13,0,0,1,.15.72,7,7,0,0,0,.32,2.08v.08a7.74,7.74,0,0,1,.24,1.35l.18,1.46c0,.08,0,.25.07.44.05.35.11.82.24,1.37.22,1.34.37,2.67.53,4.08l.21,1.86v.39a14.73,14.73,0,0,0,.19,2.71v.37a8.67,8.67,0,0,0-1,4.24c0,4.53,3.83,6.43,11.48,10.1.5,1.2,1.18,2.7,2.06,4.66.6,1.31,1.4,3.1,1.9,4.27-1.68,7-9.18,37.16-14.46,58.27-1.28,1.84-3.35,5.26-7.44,12.15-2.2,3.71-4.7,7.9-5.46,9l-.1.33-2.4,3.18-2.53,3.36c-.39.47-.75.92-1.06,1.32a19.27,19.27,0,0,1-1.43,1.69l-.34.36c-1,1.22-2,2.35-2.91,3.48-1.24,1.4-2.6,2.86-4.29,4.59,0-.48,0-1,0-1.45a118.83,118.83,0,0,0-12-52.1,133.65,133.65,0,0,0-32.64-42.39c-28.62-25.06-66.63-38.86-107-38.86-3.16,0-6.14,0-9.25.2a124.62,124.62,0,0,0-14.91,1.76c-1.2.16-2.47.35-3.79.54-1.86.27-3.8.55-5.66.77-6.39.61-12,.91-17.24.91A157.5,157.5,0,0,1,99.6,201.27l.9-3.57c-3.11-1.29-6.07-2.63-8.81-4l-.43-.31a85.24,85.24,0,0,1-10-5.7l-.37-.27,0,0-.29-.23,0,0-.47-.25.46.25L76.09,189c-2.63-1.74-6.15-4.12-8.17-5.71l-.22-.18,0-.1a66.3,66.3,0,0,1-8.19-8.9l-4.72-2.3h-.3a132.84,132.84,0,0,1-10.95-12.21,26.53,26.53,0,0,0,2.41-2.2,131.34,131.34,0,0,0,8.84,10.06l9.24-.73a17.36,17.36,0,0,0,3.08-8l.06-.41a18.36,18.36,0,0,1,.54-3l.14-.51c1.49-6.24,6.24-12.67,13.38-18.09l.21-.17.14-.11a9.37,9.37,0,0,1,.9-.71L82,134.3l.84,1.12c1.57-1.18,3.17-3.42,2-7.44-.18-.58-.44-1.37-.8-2.42-.65-1.84-1.51-4.21-2.43-6.72-.73-2-1.67-4.59-2.4-6.65C99.29,98.27,122.79,88.13,149.13,82m2.55-6.71h0C122.57,81.56,95.29,93,72.2,109.79c-.48.29,7.44,20.54,7.06,20.83h.19a14.91,14.91,0,0,0-1.9,1.42c-7.89,6-13.68,13.5-15.59,21.48a26.28,26.28,0,0,0-.85,4.56,11.56,11.56,0,0,1-2,5.26,112.54,112.54,0,0,1-12.68-15.43A18.84,18.84,0,0,0,58,133a32.63,32.63,0,0,1,1-6c2.09-10.46,8.37-20,16.64-27.76-2.76,2.1-5.61,4.47-8.37,6.75a6.45,6.45,0,0,1-1.14,1.14h.19a10.39,10.39,0,0,0-2.09,1.9c-8.36,7.8-14.73,17.49-16.82,27.94-.38,1.91-.57,4.09-.95,6-.57,6.56-5,12.17-11.6,14.92a131,131,0,0,0,17.21,20h2.75a72.17,72.17,0,0,0,8.94,9.7c0,.19.19.19.38.38,3.7,2.94,12.16,8.36,12.16,8.36h0c.07-.38.4-2.09.7-4.36a4.19,4.19,0,0,0,.33.26c0,.1.19.1.38.29a91.1,91.1,0,0,0,10.93,6.27l.19.19c3,1.53,6.2,3,9.43,4.29-7.1-.71-13.51-2.45-18.75-5.61l-3.13-1.43c1.71,1,3.45,2,5.21,3-.69-.32-1.36-.66-2-1,22.82,13,50,20.43,79.31,20.43,6,0,12-.38,17.87-1,3.32-.38,6.74-.95,9.69-1.33a118.64,118.64,0,0,1,14.35-1.71c2.95-.19,5.8-.19,8.94-.19,80.59,0,145.69,57.22,145.69,127.35A100.49,100.49,0,0,1,354,358.62a7.88,7.88,0,0,0,1.31-1l.56-.49a6.86,6.86,0,0,1,.7-.56s0,0,0,0l.07-.06c.57-.76,1.52-1.33,2.09-2.09a17.91,17.91,0,0,1,1.9-1.9l.37-.37c1.57-1.54,3.19-3,4.58-4.58v-.05c1.57-1.62,3.1-3.24,4.56-4.88.95-1.15,1.9-2.29,2.94-3.52s1.9-2.28,2.95-3.52c1.71-2.28,3.52-4.65,5.23-6.94v-.19c2.09-2.94,11.91-20.24,13.53-21.95,0,0,15.15-60.64,15.15-61.21.19-.76-5.49-12.13-5.3-12.89.19-.09-10.36-4.7-10.36-5.84a2.43,2.43,0,0,1,1-2.18v-3.05a7.79,7.79,0,0,1-.19-2.09v-.76c-.28-2.28-.47-4.46-.85-6.74-.19-.76-.19-1.33-.38-2.1a12,12,0,0,0-.38-2.66c0-.28-.19-.57-.19-.85a8.92,8.92,0,0,0-.38-2.38c0-.28-.19-.47-.19-.76-.19-.57-.19-1.14-.38-1.71-.19-.38-.19-.95-.38-1.42-.19-.95-.38-1.62-.57-2.38s-.38-1.33-.57-2.09c-.19-.1-.19-.1-.19-.29a8.28,8.28,0,0,1-.86-2.28c-.28-.85-.67-1.52-.86-2.28-1.23-3-2.56-6.08-4-9-.38-.76-.85-1.61-1.23-2.37-1-2.28-2.38-4.28-3.61-6.56a2.06,2.06,0,0,1-.86-1.14c-.66-1.33-.38-2.09-1.23-3.42-.38-.76-1.05-1.33-1.43-2.09s-1.05-1.33-1.43-2.09c-15.39-21.2-38.58-39.16-66.33-51.8-.95-.38-1.71-.67-2.76-1.14a25.31,25.31,0,0,1-2.76-1.14c-2.75-1-1.9-3.71-4.84-4.75-.38-.19-.86-.29-1.24-.48s-.85-.28-1.23-.47a62.48,62.48,0,0,0-5.9-2.09c-2.75-1-5-1.62-7.6-2.38-3-1-6.08-1.81-9.31-2.57a3.83,3.83,0,0,1-1.43-.28c-1-.29-2.37-.48-3.42-.76a5.62,5.62,0,0,1-1.43-.29c-3.42-.85-6.74-1.42-10.16-2-1-.19-1.91-.29-2.76-.48s-1.71-.28-2.57-.47c-1.71-.29-3.89-.48-5.7-.76a26,26,0,0,1-2.76-.29,23.24,23.24,0,0,1-2.75-.28,25,25,0,0,1-2.95-.29c-1.8-.19-4-.28-5.89-.47-.95,0-1.52-.19-2.38-.19-2.56-.29-5.13-.29-7.88-.48a35.26,35.26,0,0,0-4.47-.19H212a252.67,252.67,0,0,0-48.66,4.75h0c-1.12,0-10.34-19.21-11.68-19.21Z"/><path class="cls-1" d="M76.24,196.3l0,.08c1.06.64,2.16,1.23,3.28,1.81-1.1-.62-2.19-1.24-3.26-1.89Z"/><path class="cls-1" d="M209.66,214.44c-3.14,0-6,0-8.94.19a113.63,113.63,0,0,0-13.79,1.62c6.24,16.31,14,29.34,22,29,7.72-.52,13.64-13.82,15.65-30.13Q217.21,214.44,209.66,214.44Z"/><path class="cls-2" d="M209.66,54.11c-3.14,0-6.18,0-9.32.19C203.48,54.3,206.52,54.11,209.66,54.11Z"/><path class="cls-1" d="M361.24,351.58l-.57.57Z"/><path class="cls-1" d="M360.48,352.34c-.66.57-1.23,1.14-1.9,1.71A17.13,17.13,0,0,0,360.48,352.34Z"/><path class="cls-1" d="M413.51,228.89V225a13.11,13.11,0,0,1-.19-2.76v-1a68.07,68.07,0,0,0-.95-8.74c-.19-1-.19-1.72-.38-2.76a23.47,23.47,0,0,0-.38-3.52c0-.38-.19-.76-.19-1.14A16.55,16.55,0,0,0,411,202c0-.38-.19-.57-.19-.95-.19-.76-.19-1.53-.38-2.29-.19-.57-.19-1.33-.38-1.9-.19-1.14-.38-2.09-.57-3.13-.19-.76-.38-1.71-.57-2.76-.19-.19-.19-.19-.19-.38-.38-1-.57-1.9-.95-3a20.78,20.78,0,0,0-.95-2.94c-1.33-4.09-2.76-8-4.28-11.79a10.33,10.33,0,0,0-1.14-2.94c-1.14-2.95-2.56-5.61-3.7-8.56a25.44,25.44,0,0,1-1.33-2.75,49.87,49.87,0,0,0-3-5.42c-.38-1-1.14-1.71-1.52-2.76s-1.14-1.71-1.52-2.75a185.37,185.37,0,0,0-35.83-42.48A175.32,175.32,0,0,0,331.49,88C354.21,79.78,392,63.33,388,52c-5.22-15.3-79.83-16.25-133.53-1.9-5.79,1.52-11.4,3.33-16.82,5-1.9-.19-4.09-.38-6.37-.57-.95,0-1.52-.19-2.56-.19C225.81,54,223,54,220,53.83a41.23,41.23,0,0,0-4.84-.19h-5a228.52,228.52,0,0,0-52.75,6.18,31.64,31.64,0,0,0-4.08,1C121.36,68.94,91,84.05,66.05,105.91c-.38.38-2.57,2.28-3.14,3-8.36,7.79-14.73,17.48-16.82,27.94-.38,1.9-.57,4.09-1,6-.57,6.55-5,12.16-11.59,14.92a22.4,22.4,0,0,1-8,1.9c-4.52.7-7.89,4-8.31,8.06a8.3,8.3,0,0,0-.62,3.15c0,4.47,3.52,8.18,8.17,8.94H54.26a72.7,72.7,0,0,0,8.94,9.69c0,.19.19.19.38.38a53.21,53.21,0,0,0,12,8.17.19.19,0,0,0,.19.19c24.62,12.64,57,9.89,78.13-8.74,1.33-1.33,2.75-2.57,4.08-3.9l-2.37,2.38c20.53-18.06,45.9-29.08,72.7-33.36,6.56,23.86,17.49,48.66,28.32,48.28,10.46-.57,17.87-25.37,16.06-49.23,3.9.38,7.8.95,11.6,1.71.38,0,.57.19.95.19a80.12,80.12,0,0,1,11,2.57A144.6,144.6,0,0,1,353,188.31c27.94,24.24,41.44,56.17,41.06,88.2a113,113,0,0,1-32.69,74.79c3.13-3.13,6.17-6.18,8.93-9.31,1-1.14,1.9-2.28,3-3.52s1.9-2.28,2.94-3.51c1.71-2.29,3.52-4.66,5.23-6.94v-.19c2.76-3.52,5-7.32,7.6-11,1.52-2.56,3.14-5,4.47-7.6V309c1.33-2.57,2.76-5,4.09-7.6,1.33-3,2.75-6,4.08-8.94.57-1.33,1.14-2.56,1.52-3.7a23.78,23.78,0,0,0,1.52-3.9c.38-1.14.95-2.28,1.34-3.52a13.82,13.82,0,0,1,1.14-3.7c.19-.19.19-.19.19-.38a23.46,23.46,0,0,1,1-3.14,12.11,12.11,0,0,1,.38-1.33c.19-.57.38-1.33.57-2.09.19-.95.38-1.9.57-2.95v-.19c.19-.95.38-2.09.57-3.13s.38-2.09.57-3.14a1.14,1.14,0,0,0,.19-.76,12.89,12.89,0,0,0,.38-2.57c.19-1,.19-2.09.38-3.13a1.14,1.14,0,0,0,.19-.76c.19-1.14.19-2.28.38-3.52a1.71,1.71,0,0,0,.19-.95c.19-1.52.19-3,.38-4.28,0-1.33.19-2.94.19-4.46s.19-3.14.19-4.66A35.15,35.15,0,0,0,413.51,228.89Zm-304-86a16.44,16.44,0,1,1,16.44-16.44A16.39,16.39,0,0,1,109.48,142.88ZM316.86,80.63c-1.05-.57-1.81-.95-2.95-1.52s-2-1-2.94-1.52c-3-1.33-6-3-9.13-4.28-.38-.19-.95-.38-1.33-.57s-.95-.38-1.33-.57a48.34,48.34,0,0,0-6.37-2.75c-2.94-1.24-5.41-2.19-8.17-3.14C281.12,65,277.89,63.9,274.38,63a4.47,4.47,0,0,1-1.52-.38c-1.15-.38-2.57-.57-3.71-1-.57-.19-1.14-.19-1.52-.38-2.38-.57-4.85-1.14-7.32-1.71,36-9.5,86.2-8.93,89.72,1.33,2.18,6-11.6,14-30.42,21.29C318.57,81.58,317.81,81.2,316.86,80.63Z"/><path class="cls-1" d="M356.4,356.43l2.09-2.09A21.68,21.68,0,0,0,356.4,356.43Z"/><path class="cls-1" d="M155.5,188l-.3.3Z"/><path class="cls-1" d="M124.38,125.67a14.92,14.92,0,1,0-27.27,9.11l.3.43a15.19,15.19,0,0,0,12.07,6,14.88,14.88,0,0,0,14.92-14.73C124.4,126.18,124.39,125.93,124.38,125.67ZM108,139.27a12.83,12.83,0,1,1,12.83-12.83A12.84,12.84,0,0,1,108,139.27Z"/><path class="cls-1" d="M110.24,133.57a4.89,4.89,0,0,1-3.32.57,7.52,7.52,0,0,1-5.8-2.57,12.79,12.79,0,0,0,2.57.38,6.37,6.37,0,0,0,0-12.73c4.08-1.71,8.74-.19,10.45,3.89S114.33,131.86,110.24,133.57Z"/><path class="cls-1" d="M101.12,123.49a1.71,1.71,0,1,1-1.71-1.71A1.71,1.71,0,0,1,101.12,123.49Z"/></svg>