<svg id="图层_1" data-name="图层 1" xmlns="http://www.w3.org/2000/svg" viewBox="0 0 500 500"><defs><style>.cls-1{fill:#fff;}</style></defs><title>logo</title><path class="cls-1" d="M458.68,251v-.08l0,.06Z"/><path class="cls-1" d="M435.56,166.82a11.65,11.65,0,0,0,3.07-11.18c-2.19-8.55-7.22-23.59-17.3-34.59a11.92,11.92,0,0,0-1.81-1.6,11.52,11.52,0,0,0-1-.64h0a11.72,11.72,0,0,0-5.75-1.52H393.7a11.66,11.66,0,0,1-3.78-.63,11.19,11.19,0,0,1-1.18-.48,11.88,11.88,0,0,1-4-3.13q-4.45-5.37-9.35-10.38c-.54-.56-1.09-1.11-1.64-1.66a174.17,174.17,0,0,0-257.73,12,11.88,11.88,0,0,1-4,3.13,11.19,11.19,0,0,1-1.18.48,11.66,11.66,0,0,1-3.78.63H85.69a11.72,11.72,0,0,0-5.75,1.52h0a8.89,8.89,0,0,0-1,.64,11.53,11.53,0,0,0-1.82,1.6C67,132.05,62,147.1,59.81,155.65a11.65,11.65,0,0,0,3.06,11.17h0l14.69,18.3a11.66,11.66,0,0,1,2.37,9.42,183.09,183.09,0,0,0-3.51,33.07v13.51l.8-.2,3.33-.87,1.16-.3,1.59-.4,1.75-.43c1.39-.34,2.92-.7,4.57-1.08l2.4-.53,1.4-.3,4-.8,1.32-.25,1.6-.3c1.08-.2,2.19-.4,3.34-.59l1.73-.29.41-.06,2.14-.34.39-.06c2.42-.37,5-.72,7.6-1L118,233l2.39-.26,1.82-.19q4.44-.43,9.2-.74c7-.45,14.45-.65,22.32-.47q2.92.06,5.93.2h0c2.38.11,4.8.26,7.24.44h0c1.63.12,3.27.26,4.93.42l2.5.25c2.51.26,5,.56,7.6.92h0c1,.14,1.94.27,2.91.42l2.24.34c13.5,1.92,31.92,8.35,51.6,15.27,5.18,1.82,10.45,3.67,15.73,5.49q4.76,1.64,9.52,3.21,3.17,1.05,6.32,2.05c3.16,1,6.29,1.95,9.4,2.85q3.65,1,7.22,2,2.39.63,4.74,1.2c2.34.57,4.66,1.08,6.94,1.55,2.69.56,5.34,1,7.92,1.41,1.29.19,2.56.36,3.82.51l1.87.2c1.24.12,2.46.22,3.66.29a122.36,122.36,0,0,0,36.72-2.8c1.53-.36,3-.74,4.5-1.15h0c1.48-.42,2.93-.85,4.36-1.3.72-.23,1.44-.46,2.15-.71,1.4-.48,2.79-1,4.14-1.5q4.1-1.56,7.89-3.35c1.25-.59,2.49-1.19,3.7-1.82s2.41-1.25,3.57-1.9c.87-.49,1.73-1,2.57-1.47h0l2.49-1.5a120.94,120.94,0,0,0,10.52-7.31c1.38-1.06,2.69-2.13,3.95-3.19.84-.71,1.65-1.41,2.44-2.11,2-1.75,3.79-3.48,5.44-5.15.34-.33.66-.66,1-1,.64-.66,1.25-1.31,1.84-2s1.14-1.25,1.68-1.86l.78-.9c.51-.59,1-1.17,1.45-1.73.92-1.13,1.74-2.19,2.45-3.15.35-.48.68-.94,1-1.37h0l.83-1.23h0c.25-.38.48-.75.68-1.08a108.63,108.63,0,0,0-1.18-15.24c-.11-.78-.22-1.56-.34-2.35-.18-1.17-.37-2.34-.58-3.51-.4-2.35-.84-4.7-1.3-7a11.62,11.62,0,0,1,2.75-10Zm-62.8,16.55c-.35.63-.73,1.23-1.13,1.83a26.74,26.74,0,0,1-3.44,4.08c-.51.51-1.05,1-1.61,1.46s-.89.73-1.35,1.06-1.09.81-1.66,1.17-1,.66-1.52,1-1.33.77-2,1.13-1.38.69-2.1,1h0c-.72.33-1.46.64-2.21.94s-1.52.58-2.3.85h0c-16.95,5.89-40.74,5.58-62.4,4.46l-3.86-.21-5.71-.33c-2.49-.16-4.94-.3-7.31-.44h0c-7.14-.42-13.7-.76-19.24-.76-7.39,0-16.57.6-26.56,1.2h0c-16,.95-34.07,1.91-50.11.41-2.05-.19-4.07-.42-6-.7-1.33-.18-2.63-.39-3.92-.62l-.81-.15c-1.34-.25-2.66-.52-3.95-.82a69.7,69.7,0,0,1-7.12-2h0c-.78-.27-1.55-.55-2.3-.85s-1.49-.61-2.21-.94h0c-.72-.32-1.42-.66-2.1-1s-1.37-.73-2-1.13-1-.62-1.52-1-1.12-.75-1.66-1.17-.91-.69-1.35-1.06-1.1-1-1.61-1.46a26.74,26.74,0,0,1-3.44-4.08c-.4-.59-.78-1.2-1.13-1.83-3.84-6.8-4.82-15.84-1.82-27.79C153.24,76.77,252.62,79,254.87,79c0,0,99.38-2.25,119.71,76.56C377.58,167.53,376.6,176.57,372.76,183.37Z"/><path class="cls-1" d="M116.6,389.39a56.09,56.09,0,0,1-5.94-11.08,84.4,84.4,0,0,1-3.1-9.19,36.5,36.5,0,0,1-.21-17.75,35.18,35.18,0,0,1,5.22-12c.42-.58,3.84-5.39,5-6.73a41.48,41.48,0,0,1,11-8.7c22.32-12.37,52.87-19,90.79-19.65,20.92.32,53.07,5.68,84.15,10.87,4.6.77,9.15,1.53,13.62,2.26l1.28.19c8.81,1.3,32.21,4.76,59.24-3.13,29.66-8.65,53.71-28,71.65-57.63-64.14,80.6-166.29,46-179.62,41.48-32.66-11.86-70-26.09-93.33-30.83-38.46-6.52-69.09-5.08-91.9,2.5a39.87,39.87,0,0,0-11.78,6.22c-1.39,1.06-6,5.51-6,5.51A32.85,32.85,0,0,0,59.75,292a34.08,34.08,0,0,0-2.91,16.51,84.92,84.92,0,0,0,1.32,9.37,53.8,53.8,0,0,0,3.66,11.56,204,204,0,0,0,75.93,87.85A308.7,308.7,0,0,1,116.6,389.39Z"/><path class="cls-1" d="M436,304.07a267,267,0,0,1-24.24,56.08,206,206,0,0,1-55.35,52.32,198,198,0,0,1-71.77,28.39,32.56,32.56,0,0,1-5.79.51,35,35,0,0,1-5.82-.49c-12.53-2.09-25.44-4.56-30-5.74a105.84,105.84,0,0,1-60.55-41.67l0,0,0,0c-.23-.33-.46-.65-.68-1l-.21-.3a36.33,36.33,0,0,1-3.72-7,61.53,61.53,0,0,1-2.16-6.5,19.53,19.53,0,0,1-.11-9.34,18.26,18.26,0,0,1,2.66-6.26c1.53-2.19,3-4.14,3.27-4.49l0,0,0,0a23.08,23.08,0,0,1,6.1-4.9c16.91-9.49,40.52-14.58,70.18-15.11,16.23.27,41.93,4.59,66.78,8.77,4.37.75,8.7,1.47,12.93,2.17a44.47,44.47,0,0,0,7.12.52c14.13,0,37.22-4.93,59.65-18.76A136.41,136.41,0,0,0,436,304.07m16-35.26a147.36,147.36,0,0,1-18.4,28.82,131,131,0,0,1-32.46,28.45C379.79,339.25,358,344,344.65,344a37.77,37.77,0,0,1-6.13-.44c-4.24-.7-8.56-1.42-12.92-2.16-25.14-4.23-51.14-8.6-67.79-8.86-30.7.54-55.3,5.88-73.11,15.88a29,29,0,0,0-7.67,6.17c-.52.58-2.35,3.09-3.77,5.12a24.34,24.34,0,0,0-3.53,8.25,25.5,25.5,0,0,0,.14,12.25,67.81,67.81,0,0,0,2.38,7.15,42.17,42.17,0,0,0,4.36,8.23l.95,1.36a111.83,111.83,0,0,0,64,44.05c5.14,1.32,19,3.92,30.53,5.85a41,41,0,0,0,6.81.57,37.55,37.55,0,0,0,6.86-.61c53.57-9.78,99.92-40.42,131.07-83.32,12.72-21.62,22.76-46.89,30-75.56l.05-.21.07-.2A107.65,107.65,0,0,0,452,268.81Z"/><path class="cls-1" d="M450.7,262.19c-28.55,63.67-84.06,77.76-106,77.76a34.6,34.6,0,0,1-5.48-.38c-28.65-4.73-61.48-10.79-81.37-11.08-32.58.56-57.5,6.54-75.06,16.39a33.3,33.3,0,0,0-8.71,7c-1,1.1-4.07,5.51-4.07,5.51a28.09,28.09,0,0,0-4.12,9.59,29.37,29.37,0,0,0,.16,14.19,73.7,73.7,0,0,0,2.52,7.57,45.57,45.57,0,0,0,4.79,9.05c.32.46.64.93,1,1.39a115.57,115.57,0,0,0,66.26,45.63c4.2,1.08,14,3,23.75,4.7q-7.73.59-15.61.59a204,204,0,0,1-92.91-22.47,36.41,36.41,0,0,1-9.4-6.94c-9.6-9.8-18.35-21.81-26.49-33.58a51.78,51.78,0,0,1-5.51-10.29,81.2,81.2,0,0,1-3-8.74,32.44,32.44,0,0,1-.18-15.79,31,31,0,0,1,4.62-10.64c1-1.42,3.83-5.34,4.73-6.34a37.67,37.67,0,0,1,9.91-7.87c21.74-12.05,51.66-18.49,88.86-19.15,20.56.31,52.55,5.65,83.49,10.82l13.67,2.27,1.3.19c9.05,1.34,33.08,4.89,60.94-3.24C408.33,309.71,432.46,290.86,450.7,262.19Z"/><path class="cls-1" d="M323,129.24h-2.51a10.06,10.06,0,0,0-10,10.62l1.26,22.56a10.06,10.06,0,0,0,20.09,0l1.26-22.56A10.06,10.06,0,0,0,323,129.24Zm5.49,14.95-.75,13.46a6,6,0,0,1-12,0l-.74-13.46a6,6,0,0,1,6-6.34h1.5A6,6,0,0,1,328.53,144.19Z"/><path class="cls-1" d="M187.45,129.24h-2.52a10.07,10.07,0,0,0-10,10.62l1.26,22.57a10.05,10.05,0,0,0,10,9.5h0a10.07,10.07,0,0,0,10.05-9.51l1.25-22.56A10,10,0,0,0,187.45,129.24Zm5.48,14.95-.75,13.46a6,6,0,0,1-6,5.66h0a6,6,0,0,1-6-5.66l-.75-13.46a6,6,0,0,1,6-6.34h1.5A6,6,0,0,1,192.93,144.19Z"/></svg>